<?xml version="1.0" encoding="UTF-8" standalone="no"?>
<!-- Created with Inkscape (http://www.inkscape.org/) -->

<svg
   xmlns:dc="http://purl.org/dc/elements/1.1/"
   xmlns:cc="http://creativecommons.org/ns#"
   xmlns:rdf="http://www.w3.org/1999/02/22-rdf-syntax-ns#"
   xmlns:svg="http://www.w3.org/2000/svg"
   xmlns="http://www.w3.org/2000/svg"
   xmlns:sodipodi="http://sodipodi.sourceforge.net/DTD/sodipodi-0.dtd"
   xmlns:inkscape="http://www.inkscape.org/namespaces/inkscape"
   width="128mm"
   height="128mm"
   viewBox="0 0 453.54331 453.54331"
   id="svg3407"
   version="1.1"
   inkscape:version="0.91 r13725"
   sodipodi:docname="logo.svg">
  <defs
     id="defs3409" />
  <sodipodi:namedview
     id="base"
     pagecolor="#ffffff"
     bordercolor="#666666"
     borderopacity="1.0"
     inkscape:pageopacity="0.0"
     inkscape:pageshadow="2"
     inkscape:zoom="0.35"
     inkscape:cx="-80.714286"
     inkscape:cy="406.13284"
     inkscape:document-units="px"
     inkscape:current-layer="layer1"
     showgrid="false"
     inkscape:window-width="1366"
     inkscape:window-height="702"
     inkscape:window-x="-4"
     inkscape:window-y="0"
     inkscape:window-maximized="1" />
  <metadata
     id="metadata3412">
    <rdf:RDF>
      <cc:Work
         rdf:about="">
        <dc:format>image/svg+xml</dc:format>
        <dc:type
           rdf:resource="http://purl.org/dc/dcmitype/StillImage" />
        <dc:title></dc:title>
      </cc:Work>
    </rdf:RDF>
  </metadata>
  <g
     inkscape:label="Layer 1"
     inkscape:groupmode="layer"
     id="layer1"
     transform="translate(0,-598.8189)">
    <path
       inkscape:connector-curvature="0"
       id="roundel"
       d="m 447.28633,823.93581 c 0,118.97325 -96.45296,215.42609 -215.43312,215.42609 -118.9774,0 -215.424745,-96.45284 -215.424745,-215.42609 0,-118.98161 96.447345,-215.43033 215.424745,-215.43033 118.98016,0 215.43312,96.44872 215.43312,215.43033"
       style="fill:#f47421;fill-opacity:1;fill-rule:nonzero;stroke:none" />
    <path
       inkscape:connector-curvature="0"
       id="circle-of-friends"
       d="m 290.72153,721.96958 c 13.75567,7.94388 31.34029,3.23201 39.27868,-10.51956 7.94253,-13.75706 3.23477,-31.34029 -10.52236,-39.28282 -13.75429,-7.93978 -31.33756,-3.22926 -39.27999,10.52787 -7.93977,13.75151 -3.22928,31.33475 10.52367,39.27451 z m -58.86418,185.98024 c -12.6475,0 -24.63308,-2.81191 -35.39168,-7.81676 l -19.9848,35.81316 c 16.69336,8.26584 35.48707,12.93634 55.37648,12.93634 11.56696,0 22.75116,-1.60292 33.37991,-4.54611 1.88056,-11.55174 8.73982,-22.1984 19.6752,-28.51316 10.91614,-6.30235 23.54978,-6.92695 34.48529,-2.79399 21.26708,-20.91195 35.10572,-49.36299 37.12031,-81.04736 l -40.9907,-0.59667 c -3.77226,42.91832 -39.7775,76.56482 -83.67001,76.56482 z m 0,-168.03362 c 43.89251,0 79.89775,33.65346 83.67001,76.56627 l 40.9907,-0.59866 c -2.01737,-31.68165 -15.85596,-60.13261 -37.12576,-81.04326 -10.93417,4.13025 -23.56642,3.50426 -34.48396,-2.79943 -10.93409,-6.31207 -17.79186,-16.95735 -19.67249,-28.51043 -10.62734,-2.94048 -21.81154,-4.54468 -33.3785,-4.54468 -19.88941,0 -38.68171,4.66905 -55.37375,12.93762 l 19.98342,35.809 c 10.75725,-5.00479 22.74283,-7.8167 35.39033,-7.8167 z m -84.0154,84.01681 c 0,-28.42471 14.12601,-53.53039 35.72472,-68.73283 l -21.02664,-35.22456 c -25.16927,16.81777 -43.89386,42.5245 -51.67058,72.63648 9.08527,7.40496 14.89016,18.68173 14.89016,31.32371 0,12.64056 -5.80627,23.91735 -14.89154,31.32098 7.77534,30.11328 26.49997,55.82006 51.67058,72.63779 l 21.02802,-35.22594 c -21.59871,-15.201 -35.72472,-40.30668 -35.72472,-68.73563 z m 142.88376,101.96212 c -13.75713,7.94252 -18.46762,25.52438 -10.52648,39.27589 7.94251,13.75706 25.52433,18.47037 39.28142,10.52784 13.75296,-7.94115 18.46482,-25.52439 10.52233,-39.28007 -7.93977,-13.75012 -25.52439,-18.46344 -39.27727,-10.52366 z M 85.368619,795.1753 c -15.88783,0 -28.761947,12.87269 -28.761947,28.76051 0,15.88367 12.874117,28.75771 28.761947,28.75771 15.882251,0 28.757761,-12.87404 28.757761,-28.75771 0,-15.88782 -12.87551,-28.76051 -28.757761,-28.76051"
       style="fill:#ffffff;fill-opacity:1;fill-rule:nonzero;stroke:none" />
  </g>
</svg>
